<?xml version="1.0" encoding="UTF-8" standalone="no"?>
<!DOCTYPE svg PUBLIC "-//W3C//DTD SVG 1.1//EN"
 "http://www.w3.org/Graphics/SVG/1.1/DTD/svg11.dtd">
<!-- Generated by graphviz version 2.40.1 (20161225.0304)
 -->
<!-- Title: DESystemBase.hpp Pages: 1 -->
<svg width="310pt" height="196pt"
 viewBox="0.00 0.00 309.50 196.00" xmlns="http://www.w3.org/2000/svg" xmlns:xlink="http://www.w3.org/1999/xlink">
<g id="graph0" class="graph" transform="scale(1 1) rotate(0) translate(4 192)">
<title>DESystemBase.hpp</title>
<!-- Node12 -->
<g id="node1" class="node">
<title>Node12</title>
<polygon fill="#bfbfbf" stroke="#000000" points="113.5,-168.5 113.5,-187.5 225.5,-187.5 225.5,-168.5 113.5,-168.5"/>
<text text-anchor="middle" x="169.5" y="-175.5" font-family="Helvetica,sans-Serif" font-size="10.00" fill="#000000">DESystemBase.hpp</text>
</g>
<!-- Node13 -->
<g id="node2" class="node">
<title>Node13</title>
<g id="a_node2"><a xlink:href="DESystem_8hpp.html" target="_top" xlink:title="DESystem.hpp">
<polygon fill="none" stroke="#000000" points="143.5,-56.5 143.5,-75.5 231.5,-75.5 231.5,-56.5 143.5,-56.5"/>
<text text-anchor="middle" x="187.5" y="-63.5" font-family="Helvetica,sans-Serif" font-size="10.00" fill="#000000">DESystem.hpp</text>
</a>
</g>
</g>
<!-- Node12&#45;&gt;Node13 -->
<g id="edge1" class="edge">
<title>Node12&#45;&gt;Node13</title>
<path fill="none" stroke="#191970" d="M172.6709,-158.2702C176.5717,-133.9985 183.0366,-93.7725 185.9692,-75.5249"/>
<polygon fill="#191970" stroke="#191970" points="169.1659,-158.0222 171.0347,-168.4509 176.0772,-159.133 169.1659,-158.0222"/>
</g>
<!-- Node15 -->
<g id="node4" class="node">
<title>Node15</title>
<g id="a_node4"><a xlink:href="DESystemCL_8hpp_source.html" target="_top" xlink:title="DESystemCL.hpp">
<polygon fill="none" stroke="#000000" points="31.5,-112.5 31.5,-131.5 131.5,-131.5 131.5,-112.5 31.5,-112.5"/>
<text text-anchor="middle" x="81.5" y="-119.5" font-family="Helvetica,sans-Serif" font-size="10.00" fill="#000000">DESystemCL.hpp</text>
</a>
</g>
</g>
<!-- Node12&#45;&gt;Node15 -->
<g id="edge3" class="edge">
<title>Node12&#45;&gt;Node15</title>
<path fill="none" stroke="#191970" d="M145.5655,-162.769C129.9717,-152.8456 110.099,-140.1994 96.6528,-131.6427"/>
<polygon fill="#191970" stroke="#191970" points="143.8559,-165.8296 154.1716,-168.2455 147.614,-159.9239 143.8559,-165.8296"/>
</g>
<!-- Node18 -->
<g id="node7" class="node">
<title>Node18</title>
<g id="a_node7"><a xlink:href="SyncSysProxy_8hpp.html" target="_top" xlink:title="SyncSysProxy.hpp">
<polygon fill="none" stroke="#000000" points="197.5,-112.5 197.5,-131.5 301.5,-131.5 301.5,-112.5 197.5,-112.5"/>
<text text-anchor="middle" x="249.5" y="-119.5" font-family="Helvetica,sans-Serif" font-size="10.00" fill="#000000">SyncSysProxy.hpp</text>
</a>
</g>
</g>
<!-- Node12&#45;&gt;Node18 -->
<g id="edge6" class="edge">
<title>Node12&#45;&gt;Node18</title>
<path fill="none" stroke="#191970" d="M191.6571,-162.49C205.772,-152.6096 223.6151,-140.1194 235.7248,-131.6427"/>
<polygon fill="#191970" stroke="#191970" points="189.6201,-159.6436 183.4349,-168.2455 193.6344,-165.3782 189.6201,-159.6436"/>
</g>
<!-- Node14 -->
<g id="node3" class="node">
<title>Node14</title>
<g id="a_node3"><a xlink:href="Operations_8hpp_source.html" target="_top" xlink:title="Operations.hpp">
<polygon fill="none" stroke="#000000" points="178,-.5 178,-19.5 269,-19.5 269,-.5 178,-.5"/>
<text text-anchor="middle" x="223.5" y="-7.5" font-family="Helvetica,sans-Serif" font-size="10.00" fill="#000000">Operations.hpp</text>
</a>
</g>
</g>
<!-- Node13&#45;&gt;Node14 -->
<g id="edge2" class="edge">
<title>Node13&#45;&gt;Node14</title>
<path fill="none" stroke="#191970" d="M199.3096,-47.6296C205.3144,-38.2887 212.3659,-27.3197 217.3011,-19.6427"/>
<polygon fill="#191970" stroke="#191970" points="196.2342,-45.9411 193.7707,-56.2455 202.1225,-49.7264 196.2342,-45.9411"/>
</g>
<!-- Node16 -->
<g id="node5" class="node">
<title>Node16</title>
<g id="a_node5"><a xlink:href="OperationsCLCore_8hpp_source.html" target="_top" xlink:title="OperationsCLCore.hpp">
<polygon fill="none" stroke="#000000" points="0,-56.5 0,-75.5 125,-75.5 125,-56.5 0,-56.5"/>
<text text-anchor="middle" x="62.5" y="-63.5" font-family="Helvetica,sans-Serif" font-size="10.00" fill="#000000">OperationsCLCore.hpp</text>
</a>
</g>
</g>
<!-- Node15&#45;&gt;Node16 -->
<g id="edge4" class="edge">
<title>Node15&#45;&gt;Node16</title>
<path fill="none" stroke="#191970" d="M74.9685,-102.7493C71.8664,-93.6064 68.2949,-83.0798 65.7716,-75.6427"/>
<polygon fill="#191970" stroke="#191970" points="71.663,-103.9003 78.1905,-112.2455 78.2918,-101.6512 71.663,-103.9003"/>
</g>
<!-- Node17 -->
<g id="node6" class="node">
<title>Node17</title>
<g id="a_node6"><a xlink:href="OperationsCL_8hpp_source.html" target="_top" xlink:title="OperationsCL.hpp">
<polygon fill="none" stroke="#000000" points="11,-.5 11,-19.5 114,-19.5 114,-.5 11,-.5"/>
<text text-anchor="middle" x="62.5" y="-7.5" font-family="Helvetica,sans-Serif" font-size="10.00" fill="#000000">OperationsCL.hpp</text>
</a>
</g>
</g>
<!-- Node16&#45;&gt;Node17 -->
<g id="edge5" class="edge">
<title>Node16&#45;&gt;Node17</title>
<path fill="none" stroke="#191970" d="M62.5,-46.1575C62.5,-37.155 62.5,-26.9199 62.5,-19.6427"/>
<polygon fill="#191970" stroke="#191970" points="59.0001,-46.2455 62.5,-56.2455 66.0001,-46.2456 59.0001,-46.2455"/>
</g>
<!-- Node18&#45;&gt;Node13 -->
<g id="edge7" class="edge">
<title>Node18&#45;&gt;Node13</title>
<path fill="none" stroke="#191970" d="M231.0779,-105.3607C220.3519,-95.6727 207.2066,-83.7995 198.1758,-75.6427"/>
<polygon fill="#191970" stroke="#191970" points="228.9334,-108.14 238.7004,-112.2455 233.6254,-102.9453 228.9334,-108.14"/>
</g>
<!-- Node18&#45;&gt;Node14 -->
<g id="edge8" class="edge">
<title>Node18&#45;&gt;Node14</title>
<path fill="none" stroke="#191970" d="M247.9372,-102.1844C246.6173,-88.9646 244.3147,-71.2728 240.5,-56 237.2815,-43.114 231.6728,-28.8513 227.7821,-19.6748"/>
<polygon fill="#191970" stroke="#191970" points="244.4808,-102.829 248.8576,-112.4775 251.453,-102.2055 244.4808,-102.829"/>
</g>
</g>
</svg>
