<?xml version="1.0" encoding="UTF-8" standalone="no"?>
<!DOCTYPE svg PUBLIC "-//W3C//DTD SVG 1.1//EN"
 "http://www.w3.org/Graphics/SVG/1.1/DTD/svg11.dtd">
<!-- Generated by graphviz version 2.40.1 (20161225.0304)
 -->
<!-- Title: DESystemBase.hpp Pages: 1 -->
<!--zoomable 151 -->
<svg id="main" version="1.1" xmlns="http://www.w3.org/2000/svg" xmlns:xlink="http://www.w3.org/1999/xlink" xml:space="preserve" onload="init(evt)">
<style type="text/css"><![CDATA[
.edge:hover path { stroke: red; }
.edge:hover polygon { stroke: red; fill: red; }
]]></style>
<script type="text/javascript"><![CDATA[
var edges = document.getElementsByTagName('g');
if (edges && edges.length) {
  for (var i=0;i<edges.length;i++) {
    if (edges[i].id.substr(0,4)=='edge') {
      edges[i].setAttribute('class','edge');
    }
  }
}
]]></script>
        <defs>
                <circle id="rim" cx="0" cy="0" r="7"/>
                <circle id="rim2" cx="0" cy="0" r="3.5"/>
                <g id="zoomPlus">
                        <use xlink:href="#rim" fill="#404040">
                                <set attributeName="fill" to="#808080" begin="zoomplus.mouseover" end="zoomplus.mouseout"/>
                        </use>
                        <path d="M-4,0h8M0,-4v8" fill="none" stroke="white" stroke-width="1.5" pointer-events="none"/>
                </g>
                <g id="zoomMin">
                        <use xlink:href="#rim" fill="#404040">
                                <set attributeName="fill" to="#808080" begin="zoomminus.mouseover" end="zoomminus.mouseout"/>
                        </use>
                        <path d="M-4,0h8" fill="none" stroke="white" stroke-width="1.5" pointer-events="none"/>
                </g>
                <g id="dirArrow">
                        <path fill="none" stroke="white" stroke-width="1.5" d="M0,-3.0v7 M-2.5,-0.5L0,-3.0L2.5,-0.5"/>
                </g>
               <g id="resetDef">
                       <use xlink:href="#rim2" fill="#404040">
                               <set attributeName="fill" to="#808080" begin="reset.mouseover" end="reset.mouseout"/>
                       </use>
               </g>
        </defs>

<script type="text/javascript">
var viewWidth = 606;
var viewHeight = 151;
var sectionId = 'dynsection-0';
</script>
<script xlink:href="svgpan.js"/>
<svg id="graph" class="graph">
<g id="viewport">
<title>DESystemBase.hpp</title>
<!-- Node0 -->
<g id="node1" class="node">
<title>Node0</title>
<polygon fill="#bfbfbf" stroke="#000000" points="211.5,-123.5 211.5,-142.5 323.5,-142.5 323.5,-123.5 211.5,-123.5"/>
<text text-anchor="middle" x="267.5" y="-130.5" font-family="Helvetica,sans-Serif" font-size="10.00" fill="#000000">DESystemBase.hpp</text>
</g>
<!-- Node1 -->
<g id="node2" class="node">
<title>Node1</title>
<g id="a_node2"><a xlink:href="Constants_8hpp_source.html" target="_top" xlink:title="cldes/Constants.hpp">
<polygon fill="none" stroke="#000000" points="133,-62 133,-81 248,-81 248,-62 133,-62"/>
<text text-anchor="middle" x="190.5" y="-69" font-family="Helvetica,sans-Serif" font-size="10.00" fill="#000000">cldes/Constants.hpp</text>
</a>
</g>
</g>
<!-- Node0&#45;&gt;Node1 -->
<g id="edge1" class="edge">
<title>Node0&#45;&gt;Node1</title>
<path fill="none" stroke="#191970" d="M255.4688,-123.3906C243.4893,-113.8227 224.8834,-98.9621 210.6475,-87.5919"/>
<polygon fill="#191970" stroke="#191970" points="212.4447,-84.5479 202.4468,-81.0419 208.0761,-90.0175 212.4447,-84.5479"/>
</g>
<!-- Node5 -->
<g id="node6" class="node">
<title>Node5</title>
<g id="a_node6"><a xlink:href="EventsSet_8hpp_source.html" target="_top" xlink:title="cldes/EventsSet.hpp">
<polygon fill="none" stroke="#000000" points="0,-62 0,-81 115,-81 115,-62 0,-62"/>
<text text-anchor="middle" x="57.5" y="-69" font-family="Helvetica,sans-Serif" font-size="10.00" fill="#000000">cldes/EventsSet.hpp</text>
</a>
</g>
</g>
<!-- Node0&#45;&gt;Node5 -->
<g id="edge5" class="edge">
<title>Node0&#45;&gt;Node5</title>
<path fill="none" stroke="#191970" d="M234.6875,-123.3906C198.3178,-112.7395 139.5522,-95.5296 99.7637,-83.8772"/>
<polygon fill="#191970" stroke="#191970" points="100.6627,-80.4936 90.0821,-81.0419 98.6953,-87.2114 100.6627,-80.4936"/>
</g>
<!-- Node6 -->
<g id="node7" class="node">
<title>Node6</title>
<g id="a_node7"><a xlink:href="DESystemBaseFwd_8hpp_source.html" target="_top" xlink:title="cldes/src/des/DESystemBase\lFwd.hpp">
<polygon fill="none" stroke="#000000" points="266,-56.5 266,-86.5 423,-86.5 423,-56.5 266,-56.5"/>
<text text-anchor="start" x="274" y="-74.5" font-family="Helvetica,sans-Serif" font-size="10.00" fill="#000000">cldes/src/des/DESystemBase</text>
<text text-anchor="middle" x="344.5" y="-63.5" font-family="Helvetica,sans-Serif" font-size="10.00" fill="#000000">Fwd.hpp</text>
</a>
</g>
</g>
<!-- Node0&#45;&gt;Node6 -->
<g id="edge7" class="edge">
<title>Node0&#45;&gt;Node6</title>
<path fill="none" stroke="#191970" d="M279.5313,-123.3906C289.6628,-115.2986 304.5342,-103.4207 317.4931,-93.0705"/>
<polygon fill="#191970" stroke="#191970" points="320.0343,-95.5202 325.6637,-86.5446 315.6657,-90.0506 320.0343,-95.5202"/>
</g>
<!-- Node11 -->
<g id="node12" class="node">
<title>Node11</title>
<g id="a_node12"><a xlink:href="DESystemBaseCore_8hpp_source.html" target="_top" xlink:title="cldes/src/des/DESystemBase\lCore.hpp">
<polygon fill="none" stroke="#000000" points="441,-56.5 441,-86.5 598,-86.5 598,-56.5 441,-56.5"/>
<text text-anchor="start" x="449" y="-74.5" font-family="Helvetica,sans-Serif" font-size="10.00" fill="#000000">cldes/src/des/DESystemBase</text>
<text text-anchor="middle" x="519.5" y="-63.5" font-family="Helvetica,sans-Serif" font-size="10.00" fill="#000000">Core.hpp</text>
</a>
</g>
</g>
<!-- Node0&#45;&gt;Node11 -->
<g id="edge13" class="edge">
<title>Node0&#45;&gt;Node11</title>
<path fill="none" stroke="#191970" d="M306.5985,-123.4581C344.2069,-114.2799 401.9544,-100.1867 447.8229,-88.9926"/>
<polygon fill="#191970" stroke="#191970" points="448.8302,-92.3496 457.7152,-86.5784 447.1705,-85.5492 448.8302,-92.3496"/>
</g>
<!-- Node2 -->
<g id="node3" class="node">
<title>Node2</title>
<polygon fill="none" stroke="#bfbfbf" points="159.5,-.5 159.5,-19.5 239.5,-19.5 239.5,-.5 159.5,-.5"/>
<text text-anchor="middle" x="199.5" y="-7.5" font-family="Helvetica,sans-Serif" font-size="10.00" fill="#000000">Eigen/Sparse</text>
</g>
<!-- Node1&#45;&gt;Node2 -->
<g id="edge2" class="edge">
<title>Node1&#45;&gt;Node2</title>
<path fill="none" stroke="#191970" d="M191.9063,-61.8906C193.1538,-53.3657 195.0162,-40.6392 196.5844,-29.9235"/>
<polygon fill="#191970" stroke="#191970" points="200.089,-30.1463 198.0739,-19.7449 193.1627,-29.1326 200.089,-30.1463"/>
</g>
<!-- Node3 -->
<g id="node4" class="node">
<title>Node3</title>
<polygon fill="none" stroke="#bfbfbf" points="35.5,-.5 35.5,-19.5 79.5,-19.5 79.5,-.5 35.5,-.5"/>
<text text-anchor="middle" x="57.5" y="-7.5" font-family="Helvetica,sans-Serif" font-size="10.00" fill="#000000">bitset</text>
</g>
<!-- Node1&#45;&gt;Node3 -->
<g id="edge3" class="edge">
<title>Node1&#45;&gt;Node3</title>
<path fill="none" stroke="#191970" d="M169.7188,-61.8906C147.6606,-51.6908 112.595,-35.4763 87.5331,-23.8875"/>
<polygon fill="#191970" stroke="#191970" points="88.6809,-20.5622 78.1353,-19.5419 85.7429,-26.9158 88.6809,-20.5622"/>
</g>
<!-- Node4 -->
<g id="node5" class="node">
<title>Node4</title>
<polygon fill="none" stroke="#bfbfbf" points="97.5,-.5 97.5,-19.5 141.5,-19.5 141.5,-.5 97.5,-.5"/>
<text text-anchor="middle" x="119.5" y="-7.5" font-family="Helvetica,sans-Serif" font-size="10.00" fill="#000000">limits</text>
</g>
<!-- Node1&#45;&gt;Node4 -->
<g id="edge4" class="edge">
<title>Node1&#45;&gt;Node4</title>
<path fill="none" stroke="#191970" d="M179.4063,-61.8906C168.5285,-52.4683 151.7252,-37.9134 138.68,-26.6137"/>
<polygon fill="#191970" stroke="#191970" points="140.6004,-23.6466 130.7502,-19.7449 136.0173,-28.9377 140.6004,-23.6466"/>
</g>
<!-- Node5&#45;&gt;Node3 -->
<g id="edge6" class="edge">
<title>Node5&#45;&gt;Node3</title>
<path fill="none" stroke="#191970" d="M57.5,-61.8906C57.5,-53.3657 57.5,-40.6392 57.5,-29.9235"/>
<polygon fill="#191970" stroke="#191970" points="61.0001,-29.7448 57.5,-19.7449 54.0001,-29.7449 61.0001,-29.7448"/>
</g>
<!-- Node6&#45;&gt;Node2 -->
<g id="edge8" class="edge">
<title>Node6&#45;&gt;Node2</title>
<path fill="none" stroke="#191970" d="M309.029,-56.4554C285.2598,-46.374 254.232,-33.2139 231.2715,-23.4755"/>
<polygon fill="#191970" stroke="#191970" points="232.5427,-20.2129 221.9699,-19.5303 229.8094,-26.6572 232.5427,-20.2129"/>
</g>
<!-- Node7 -->
<g id="node8" class="node">
<title>Node7</title>
<polygon fill="none" stroke="#bfbfbf" points="257.5,-.5 257.5,-19.5 321.5,-19.5 321.5,-.5 257.5,-.5"/>
<text text-anchor="middle" x="289.5" y="-7.5" font-family="Helvetica,sans-Serif" font-size="10.00" fill="#000000">algorithm</text>
</g>
<!-- Node6&#45;&gt;Node7 -->
<g id="edge9" class="edge">
<title>Node6&#45;&gt;Node7</title>
<path fill="none" stroke="#191970" d="M330.9045,-56.2977C323.1109,-47.5831 313.2953,-36.6075 305.1774,-27.5302"/>
<polygon fill="#191970" stroke="#191970" points="307.5813,-24.9678 298.3062,-19.8469 302.3635,-29.6341 307.5813,-24.9678"/>
</g>
<!-- Node8 -->
<g id="node9" class="node">
<title>Node8</title>
<polygon fill="none" stroke="#bfbfbf" points="339.5,-.5 339.5,-19.5 397.5,-19.5 397.5,-.5 339.5,-.5"/>
<text text-anchor="middle" x="368.5" y="-7.5" font-family="Helvetica,sans-Serif" font-size="10.00" fill="#000000">memory</text>
</g>
<!-- Node6&#45;&gt;Node8 -->
<g id="edge10" class="edge">
<title>Node6&#45;&gt;Node8</title>
<path fill="none" stroke="#191970" d="M350.4326,-56.2977C353.6252,-48.1166 357.5954,-37.943 361.0004,-29.2179"/>
<polygon fill="#191970" stroke="#191970" points="364.2823,-30.4351 364.6573,-19.8469 357.7613,-27.8903 364.2823,-30.4351"/>
</g>
<!-- Node9 -->
<g id="node10" class="node">
<title>Node9</title>
<polygon fill="none" stroke="#bfbfbf" points="415.5,-.5 415.5,-19.5 447.5,-19.5 447.5,-.5 415.5,-.5"/>
<text text-anchor="middle" x="431.5" y="-7.5" font-family="Helvetica,sans-Serif" font-size="10.00" fill="#000000">set</text>
</g>
<!-- Node6&#45;&gt;Node9 -->
<g id="edge11" class="edge">
<title>Node6&#45;&gt;Node9</title>
<path fill="none" stroke="#191970" d="M366.0056,-56.2977C379.2968,-46.9022 396.3057,-34.8787 409.6588,-25.4395"/>
<polygon fill="#191970" stroke="#191970" points="411.6846,-28.2937 417.83,-19.6633 407.6439,-22.5776 411.6846,-28.2937"/>
</g>
<!-- Node10 -->
<g id="node11" class="node">
<title>Node10</title>
<polygon fill="none" stroke="#bfbfbf" points="466,-.5 466,-19.5 513,-19.5 513,-.5 466,-.5"/>
<text text-anchor="middle" x="489.5" y="-7.5" font-family="Helvetica,sans-Serif" font-size="10.00" fill="#000000">vector</text>
</g>
<!-- Node6&#45;&gt;Node10 -->
<g id="edge12" class="edge">
<title>Node6&#45;&gt;Node10</title>
<path fill="none" stroke="#191970" d="M379.971,-56.4554C403.7402,-46.374 434.768,-33.2139 457.7285,-23.4755"/>
<polygon fill="#191970" stroke="#191970" points="459.1906,-26.6572 467.0301,-19.5303 456.4573,-20.2129 459.1906,-26.6572"/>
</g>
</g>
</svg>
        <g id="navigator" transform="translate(0 0)" fill="#404254">
                <rect fill="#f2f5e9" fill-opacity="0.5" stroke="#606060" stroke-width=".5" x="0" y="0" width="60" height="60"/>
                <use id="zoomplus" xlink:href="#zoomPlus" x="17" y="9" onmousedown="handleZoom(evt,'in')"/>
                <use id="zoomminus" xlink:href="#zoomMin" x="42" y="9" onmousedown="handleZoom(evt,'out')"/>
                <use id="reset" xlink:href="#resetDef" x="30" y="36" onmousedown="handleReset()"/>
                <g id="arrowUp" xlink:href="#dirArrow" transform="translate(30 24)" onmousedown="handlePan(0,-1)">
                  <use xlink:href="#rim" fill="#404040">
                        <set attributeName="fill" to="#808080" begin="arrowUp.mouseover" end="arrowUp.mouseout"/>
                  </use>
                  <path fill="none" stroke="white" stroke-width="1.5" d="M0,-3.0v7 M-2.5,-0.5L0,-3.0L2.5,-0.5"/>
                </g>
                <g id="arrowRight" xlink:href="#dirArrow" transform="rotate(90) translate(36 -43)" onmousedown="handlePan(1,0)">
                  <use xlink:href="#rim" fill="#404040">
                        <set attributeName="fill" to="#808080" begin="arrowRight.mouseover" end="arrowRight.mouseout"/>
                  </use>
                  <path fill="none" stroke="white" stroke-width="1.5" d="M0,-3.0v7 M-2.5,-0.5L0,-3.0L2.5,-0.5"/>
                </g>
                <g id="arrowDown" xlink:href="#dirArrow" transform="rotate(180) translate(-30 -48)" onmousedown="handlePan(0,1)">
                  <use xlink:href="#rim" fill="#404040">
                        <set attributeName="fill" to="#808080" begin="arrowDown.mouseover" end="arrowDown.mouseout"/>
                  </use>
                  <path fill="none" stroke="white" stroke-width="1.5" d="M0,-3.0v7 M-2.5,-0.5L0,-3.0L2.5,-0.5"/>
                </g>
                <g id="arrowLeft" xlink:href="#dirArrow" transform="rotate(270) translate(-36 17)" onmousedown="handlePan(-1,0)">
                  <use xlink:href="#rim" fill="#404040">
                        <set attributeName="fill" to="#808080" begin="arrowLeft.mouseover" end="arrowLeft.mouseout"/>
                  </use>
                  <path fill="none" stroke="white" stroke-width="1.5" d="M0,-3.0v7 M-2.5,-0.5L0,-3.0L2.5,-0.5"/>
                </g>
        </g>
        <svg viewBox="0 0 15 15" width="100%" height="30px" preserveAspectRatio="xMaxYMin meet">
         <g id="arrow_out" transform="scale(0.3 0.3)">
          <a xlink:href="DESystemBase_8hpp__incl_org.svg" target="_base">
           <rect id="button" ry="5" rx="5" y="6" x="6" height="38" width="38"
                fill="#f2f5e9" fill-opacity="0.5" stroke="#606060" stroke-width="1.0"/>
           <path id="arrow"
             d="M 11.500037,31.436501 C 11.940474,20.09759 22.043105,11.32322 32.158766,21.979434 L 37.068811,17.246167 C 37.068811,17.246167 37.088388,32 37.088388,32 L 22.160133,31.978069 C 22.160133,31.978069 26.997745,27.140456 26.997745,27.140456 C 18.528582,18.264221 13.291696,25.230495 11.500037,31.436501 z"
             style="fill:#404040;"/>
          </a>
         </g>
        </svg>
</svg>
