<?xml version="1.0" encoding="UTF-8" standalone="no"?>
<!DOCTYPE svg PUBLIC "-//W3C//DTD SVG 1.1//EN"
 "http://www.w3.org/Graphics/SVG/1.1/DTD/svg11.dtd">
<!-- Generated by graphviz version 2.40.1 (20161225.0304)
 -->
<!-- Title: DESystem.hpp Pages: 1 -->
<svg width="1085pt" height="296pt"
 viewBox="0.00 0.00 1085.00 296.00" xmlns="http://www.w3.org/2000/svg" xmlns:xlink="http://www.w3.org/1999/xlink">
<g id="graph0" class="graph" transform="scale(1 1) rotate(0) translate(4 292)">
<title>DESystem.hpp</title>
<!-- Node0 -->
<g id="node1" class="node">
<title>Node0</title>
<polygon fill="#bfbfbf" stroke="#000000" points="621.5,-268.5 621.5,-287.5 709.5,-287.5 709.5,-268.5 621.5,-268.5"/>
<text text-anchor="middle" x="665.5" y="-275.5" font-family="Helvetica,sans-Serif" font-size="10.00" fill="#000000">DESystem.hpp</text>
</g>
<!-- Node1 -->
<g id="node2" class="node">
<title>Node1</title>
<g id="a_node2"><a xlink:href="DESystemBase_8hpp.html" target="_top" xlink:title="cldes/DESystemBase.hpp">
<polygon fill="none" stroke="#000000" points="711.5,-140 711.5,-159 851.5,-159 851.5,-140 711.5,-140"/>
<text text-anchor="middle" x="781.5" y="-147" font-family="Helvetica,sans-Serif" font-size="10.00" fill="#000000">cldes/DESystemBase.hpp</text>
</a>
</g>
</g>
<!-- Node0&#45;&gt;Node1 -->
<g id="edge1" class="edge">
<title>Node0&#45;&gt;Node1</title>
<path fill="none" stroke="#191970" d="M704.2371,-268.455C724.4334,-261.5497 747.9021,-250.1569 762.5,-232 776.9143,-214.0715 780.8052,-187.2273 781.6525,-169.071"/>
<polygon fill="#191970" stroke="#191970" points="785.1523,-169.1145 781.8537,-159.0462 778.1537,-168.974 785.1523,-169.1145"/>
</g>
<!-- Node13 -->
<g id="node14" class="node">
<title>Node13</title>
<g id="a_node14"><a xlink:href="DESystemFwd_8hpp_source.html" target="_top" xlink:title="cldes/src/des/DESystemFwd.hpp">
<polygon fill="none" stroke="#000000" points="242,-73 242,-92 415,-92 415,-73 242,-73"/>
<text text-anchor="middle" x="328.5" y="-80" font-family="Helvetica,sans-Serif" font-size="10.00" fill="#000000">cldes/src/des/DESystemFwd.hpp</text>
</a>
</g>
</g>
<!-- Node0&#45;&gt;Node13 -->
<g id="edge15" class="edge">
<title>Node0&#45;&gt;Node13</title>
<path fill="none" stroke="#191970" d="M621.4678,-274.1593C558.0068,-267.9441 444.6914,-254.0997 410.5,-232 363.8166,-201.826 341.5002,-135.4845 332.9209,-102.2664"/>
<polygon fill="#191970" stroke="#191970" points="336.2797,-101.2653 330.5227,-92.371 329.4766,-102.9141 336.2797,-101.2653"/>
</g>
<!-- Node19 -->
<g id="node20" class="node">
<title>Node19</title>
<g id="a_node20"><a xlink:href="DESystemCore_8hpp.html" target="_top" xlink:title="cldes/src/des/DESystemCore.hpp">
<polygon fill="none" stroke="#000000" points="577.5,-207 577.5,-226 753.5,-226 753.5,-207 577.5,-207"/>
<text text-anchor="middle" x="665.5" y="-214" font-family="Helvetica,sans-Serif" font-size="10.00" fill="#000000">cldes/src/des/DESystemCore.hpp</text>
</a>
</g>
</g>
<!-- Node0&#45;&gt;Node19 -->
<g id="edge24" class="edge">
<title>Node0&#45;&gt;Node19</title>
<path fill="none" stroke="#191970" d="M665.5,-268.3906C665.5,-259.8657 665.5,-247.1392 665.5,-236.4235"/>
<polygon fill="#191970" stroke="#191970" points="669.0001,-236.2448 665.5,-226.2449 662.0001,-236.2449 669.0001,-236.2448"/>
</g>
<!-- Node20 -->
<g id="node21" class="node">
<title>Node20</title>
<g id="a_node21"><a xlink:href="TransitionProxy_8hpp_source.html" target="_top" xlink:title="cldes/TransitionProxy.hpp">
<polygon fill="none" stroke="#000000" points="419.5,-207 419.5,-226 559.5,-226 559.5,-207 419.5,-207"/>
<text text-anchor="middle" x="489.5" y="-214" font-family="Helvetica,sans-Serif" font-size="10.00" fill="#000000">cldes/TransitionProxy.hpp</text>
</a>
</g>
</g>
<!-- Node0&#45;&gt;Node20 -->
<g id="edge25" class="edge">
<title>Node0&#45;&gt;Node20</title>
<path fill="none" stroke="#191970" d="M638,-268.3906C608.0353,-257.92 559.9317,-241.1111 526.6302,-229.4745"/>
<polygon fill="#191970" stroke="#191970" points="527.4017,-226.0366 516.8069,-226.0419 525.0926,-232.6448 527.4017,-226.0366"/>
</g>
<!-- Node22 -->
<g id="node23" class="node">
<title>Node22</title>
<g id="a_node23"><a xlink:href="SyncSysProxy_8hpp.html" target="_top" xlink:title="cldes/operations/SyncSys\lProxy.hpp">
<polygon fill="none" stroke="#000000" points="809.5,-201.5 809.5,-231.5 949.5,-231.5 949.5,-201.5 809.5,-201.5"/>
<text text-anchor="start" x="817.5" y="-219.5" font-family="Helvetica,sans-Serif" font-size="10.00" fill="#000000">cldes/operations/SyncSys</text>
<text text-anchor="middle" x="879.5" y="-208.5" font-family="Helvetica,sans-Serif" font-size="10.00" fill="#000000">Proxy.hpp</text>
</a>
</g>
</g>
<!-- Node0&#45;&gt;Node22 -->
<g id="edge28" class="edge">
<title>Node0&#45;&gt;Node22</title>
<path fill="none" stroke="#191970" d="M698.9375,-268.3906C730.4474,-259.3352 778.4537,-245.539 817.0473,-234.4479"/>
<polygon fill="#191970" stroke="#191970" points="818.5055,-237.6705 827.1497,-231.5446 816.572,-230.9429 818.5055,-237.6705"/>
</g>
<!-- Node2 -->
<g id="node3" class="node">
<title>Node2</title>
<g id="a_node3"><a xlink:href="Constants_8hpp_source.html" target="_top" xlink:title="cldes/Constants.hpp">
<polygon fill="none" stroke="#000000" points="822,-73 822,-92 937,-92 937,-73 822,-73"/>
<text text-anchor="middle" x="879.5" y="-80" font-family="Helvetica,sans-Serif" font-size="10.00" fill="#000000">cldes/Constants.hpp</text>
</a>
</g>
</g>
<!-- Node1&#45;&gt;Node2 -->
<g id="edge2" class="edge">
<title>Node1&#45;&gt;Node2</title>
<path fill="none" stroke="#191970" d="M795.541,-139.9005C811.6238,-128.9052 838.1906,-110.7422 857.1316,-97.7927"/>
<polygon fill="#191970" stroke="#191970" points="859.2052,-100.6148 865.485,-92.0817 855.2545,-94.8362 859.2052,-100.6148"/>
</g>
<!-- Node6 -->
<g id="node7" class="node">
<title>Node6</title>
<g id="a_node7"><a xlink:href="EventsSet_8hpp_source.html" target="_top" xlink:title="cldes/EventsSet.hpp">
<polygon fill="none" stroke="#000000" points="955,-73 955,-92 1070,-92 1070,-73 955,-73"/>
<text text-anchor="middle" x="1012.5" y="-80" font-family="Helvetica,sans-Serif" font-size="10.00" fill="#000000">cldes/EventsSet.hpp</text>
</a>
</g>
</g>
<!-- Node1&#45;&gt;Node6 -->
<g id="edge6" class="edge">
<title>Node1&#45;&gt;Node6</title>
<path fill="none" stroke="#191970" d="M814.5967,-139.9005C855.4221,-128.0594 924.9082,-107.9054 969.7391,-94.9025"/>
<polygon fill="#191970" stroke="#191970" points="970.8355,-98.2288 979.4647,-92.0817 968.8855,-91.5059 970.8355,-98.2288"/>
</g>
<!-- Node7 -->
<g id="node8" class="node">
<title>Node7</title>
<g id="a_node8"><a xlink:href="DESystemBaseFwd_8hpp_source.html" target="_top" xlink:title="cldes/src/des/DESystemBase\lFwd.hpp">
<polygon fill="none" stroke="#000000" points="647,-67.5 647,-97.5 804,-97.5 804,-67.5 647,-67.5"/>
<text text-anchor="start" x="655" y="-85.5" font-family="Helvetica,sans-Serif" font-size="10.00" fill="#000000">cldes/src/des/DESystemBase</text>
<text text-anchor="middle" x="725.5" y="-74.5" font-family="Helvetica,sans-Serif" font-size="10.00" fill="#000000">Fwd.hpp</text>
</a>
</g>
</g>
<!-- Node1&#45;&gt;Node7 -->
<g id="edge8" class="edge">
<title>Node1&#45;&gt;Node7</title>
<path fill="none" stroke="#191970" d="M773.4766,-139.9005C765.9574,-130.9043 754.4277,-117.1099 744.5556,-105.2986"/>
<polygon fill="#191970" stroke="#191970" points="747.1541,-102.95 738.0555,-97.5218 741.7831,-107.4392 747.1541,-102.95"/>
</g>
<!-- Node12 -->
<g id="node13" class="node">
<title>Node12</title>
<g id="a_node13"><a xlink:href="DESystemBaseCore_8hpp_source.html" target="_top" xlink:title="cldes/src/des/DESystemBase\lCore.hpp">
<polygon fill="none" stroke="#000000" points="472,-67.5 472,-97.5 629,-97.5 629,-67.5 472,-67.5"/>
<text text-anchor="start" x="480" y="-85.5" font-family="Helvetica,sans-Serif" font-size="10.00" fill="#000000">cldes/src/des/DESystemBase</text>
<text text-anchor="middle" x="550.5" y="-74.5" font-family="Helvetica,sans-Serif" font-size="10.00" fill="#000000">Core.hpp</text>
</a>
</g>
</g>
<!-- Node1&#45;&gt;Node12 -->
<g id="edge14" class="edge">
<title>Node1&#45;&gt;Node12</title>
<path fill="none" stroke="#191970" d="M748.4033,-139.9005C712.913,-129.6068 655.7635,-113.031 611.9808,-100.3321"/>
<polygon fill="#191970" stroke="#191970" points="612.8706,-96.946 602.2915,-97.5218 610.9206,-103.6689 612.8706,-96.946"/>
</g>
<!-- Node3 -->
<g id="node4" class="node">
<title>Node3</title>
<polygon fill="none" stroke="#bfbfbf" points="766.5,-6 766.5,-25 846.5,-25 846.5,-6 766.5,-6"/>
<text text-anchor="middle" x="806.5" y="-13" font-family="Helvetica,sans-Serif" font-size="10.00" fill="#000000">Eigen/Sparse</text>
</g>
<!-- Node2&#45;&gt;Node3 -->
<g id="edge3" class="edge">
<title>Node2&#45;&gt;Node3</title>
<path fill="none" stroke="#191970" d="M869.0409,-72.9005C857.4403,-62.2535 838.5171,-44.8856 824.5195,-32.0385"/>
<polygon fill="#191970" stroke="#191970" points="826.6737,-29.2649 816.9397,-25.0817 821.9404,-34.4221 826.6737,-29.2649"/>
</g>
<!-- Node4 -->
<g id="node5" class="node">
<title>Node4</title>
<polygon fill="none" stroke="#bfbfbf" points="958.5,-6 958.5,-25 1002.5,-25 1002.5,-6 958.5,-6"/>
<text text-anchor="middle" x="980.5" y="-13" font-family="Helvetica,sans-Serif" font-size="10.00" fill="#000000">bitset</text>
</g>
<!-- Node2&#45;&gt;Node4 -->
<g id="edge4" class="edge">
<title>Node2&#45;&gt;Node4</title>
<path fill="none" stroke="#191970" d="M893.9708,-72.9005C910.6209,-61.8554 938.174,-43.5776 957.7114,-30.6172"/>
<polygon fill="#191970" stroke="#191970" points="959.6576,-33.5263 966.056,-25.0817 955.788,-27.693 959.6576,-33.5263"/>
</g>
<!-- Node5 -->
<g id="node6" class="node">
<title>Node5</title>
<polygon fill="none" stroke="#bfbfbf" points="864.5,-6 864.5,-25 908.5,-25 908.5,-6 864.5,-6"/>
<text text-anchor="middle" x="886.5" y="-13" font-family="Helvetica,sans-Serif" font-size="10.00" fill="#000000">limits</text>
</g>
<!-- Node2&#45;&gt;Node5 -->
<g id="edge5" class="edge">
<title>Node2&#45;&gt;Node5</title>
<path fill="none" stroke="#191970" d="M880.5029,-72.9005C881.5217,-63.149 883.1296,-47.7597 884.4241,-35.3695"/>
<polygon fill="#191970" stroke="#191970" points="887.9408,-35.3912 885.4989,-25.0817 880.9787,-34.6638 887.9408,-35.3912"/>
</g>
<!-- Node6&#45;&gt;Node4 -->
<g id="edge7" class="edge">
<title>Node6&#45;&gt;Node4</title>
<path fill="none" stroke="#191970" d="M1007.9152,-72.9005C1003.1152,-62.8505 995.4551,-46.8122 989.4506,-34.2403"/>
<polygon fill="#191970" stroke="#191970" points="992.5444,-32.5968 985.0763,-25.0817 986.2279,-35.6137 992.5444,-32.5968"/>
</g>
<!-- Node7&#45;&gt;Node3 -->
<g id="edge9" class="edge">
<title>Node7&#45;&gt;Node3</title>
<path fill="none" stroke="#191970" d="M743.8802,-67.2967C756.7454,-56.6551 773.9063,-42.4602 787.0096,-31.6217"/>
<polygon fill="#191970" stroke="#191970" points="789.4737,-34.1257 794.9485,-25.055 785.0121,-28.7318 789.4737,-34.1257"/>
</g>
<!-- Node8 -->
<g id="node9" class="node">
<title>Node8</title>
<polygon fill="none" stroke="#bfbfbf" points="459.5,-6 459.5,-25 523.5,-25 523.5,-6 459.5,-6"/>
<text text-anchor="middle" x="491.5" y="-13" font-family="Helvetica,sans-Serif" font-size="10.00" fill="#000000">algorithm</text>
</g>
<!-- Node7&#45;&gt;Node8 -->
<g id="edge10" class="edge">
<title>Node7&#45;&gt;Node8</title>
<path fill="none" stroke="#191970" d="M672.9858,-67.4639C630.9297,-55.4222 572.7076,-38.7518 533.6567,-27.5705"/>
<polygon fill="#191970" stroke="#191970" points="534.2494,-24.0996 523.6723,-24.7117 532.3225,-30.8292 534.2494,-24.0996"/>
</g>
<!-- Node9 -->
<g id="node10" class="node">
<title>Node9</title>
<polygon fill="none" stroke="#bfbfbf" points="690.5,-6 690.5,-25 748.5,-25 748.5,-6 690.5,-6"/>
<text text-anchor="middle" x="719.5" y="-13" font-family="Helvetica,sans-Serif" font-size="10.00" fill="#000000">memory</text>
</g>
<!-- Node7&#45;&gt;Node9 -->
<g id="edge11" class="edge">
<title>Node7&#45;&gt;Node9</title>
<path fill="none" stroke="#191970" d="M724.1385,-67.2967C723.2854,-57.7699 722.1772,-45.3954 721.258,-35.1306"/>
<polygon fill="#191970" stroke="#191970" points="724.7338,-34.7029 720.3557,-25.055 717.7617,-35.3273 724.7338,-34.7029"/>
</g>
<!-- Node10 -->
<g id="node11" class="node">
<title>Node10</title>
<polygon fill="none" stroke="#bfbfbf" points="640.5,-6 640.5,-25 672.5,-25 672.5,-6 640.5,-6"/>
<text text-anchor="middle" x="656.5" y="-13" font-family="Helvetica,sans-Serif" font-size="10.00" fill="#000000">set</text>
</g>
<!-- Node7&#45;&gt;Node10 -->
<g id="edge12" class="edge">
<title>Node7&#45;&gt;Node10</title>
<path fill="none" stroke="#191970" d="M709.8428,-67.2967C699.0923,-56.8578 684.8206,-42.9997 673.7445,-32.2446"/>
<polygon fill="#191970" stroke="#191970" points="675.9527,-29.5103 666.3402,-25.055 671.0763,-34.5323 675.9527,-29.5103"/>
</g>
<!-- Node11 -->
<g id="node12" class="node">
<title>Node11</title>
<polygon fill="none" stroke="#bfbfbf" points="564,-6 564,-25 611,-25 611,-6 564,-6"/>
<text text-anchor="middle" x="587.5" y="-13" font-family="Helvetica,sans-Serif" font-size="10.00" fill="#000000">vector</text>
</g>
<!-- Node7&#45;&gt;Node11 -->
<g id="edge13" class="edge">
<title>Node7&#45;&gt;Node11</title>
<path fill="none" stroke="#191970" d="M694.5301,-67.4639C671.1669,-56.1209 639.3441,-40.6707 616.4806,-29.5703"/>
<polygon fill="#191970" stroke="#191970" points="617.8057,-26.323 607.2812,-25.1039 614.7484,-32.62 617.8057,-26.323"/>
</g>
<!-- Node13&#45;&gt;Node3 -->
<g id="edge17" class="edge">
<title>Node13&#45;&gt;Node3</title>
<path fill="none" stroke="#191970" d="M411.1333,-72.9822C531.0263,-59.1146 740.8197,-34.6062 757.5,-31 761.4585,-30.1442 765.5537,-29.1046 769.6127,-27.9732"/>
<polygon fill="#191970" stroke="#191970" points="770.9416,-31.2296 779.5292,-25.0245 768.9464,-24.52 770.9416,-31.2296"/>
</g>
<!-- Node13&#45;&gt;Node8 -->
<g id="edge16" class="edge">
<title>Node13&#45;&gt;Node8</title>
<path fill="none" stroke="#191970" d="M351.8539,-72.9005C379.9352,-61.3579 427.2335,-41.9163 458.9017,-28.8993"/>
<polygon fill="#191970" stroke="#191970" points="460.2709,-32.1207 468.1894,-25.0817 457.6096,-25.6463 460.2709,-32.1207"/>
</g>
<!-- Node13&#45;&gt;Node11 -->
<g id="edge23" class="edge">
<title>Node13&#45;&gt;Node11</title>
<path fill="none" stroke="#191970" d="M367.6906,-72.9446C408.8228,-62.8367 475.3289,-46.2693 532.5,-31 539.4548,-29.1425 546.8858,-27.0927 553.9643,-25.1089"/>
<polygon fill="#191970" stroke="#191970" points="555.3134,-28.3649 563.9863,-22.2795 553.4115,-21.6282 555.3134,-28.3649"/>
</g>
<!-- Node14 -->
<g id="node15" class="node">
<title>Node14</title>
<polygon fill="none" stroke="#bfbfbf" points="59.5,-.5 59.5,-30.5 187.5,-30.5 187.5,-.5 59.5,-.5"/>
<text text-anchor="start" x="67.5" y="-18.5" font-family="Helvetica,sans-Serif" font-size="10.00" fill="#000000">boost/iterator/counting</text>
<text text-anchor="middle" x="123.5" y="-7.5" font-family="Helvetica,sans-Serif" font-size="10.00" fill="#000000">_iterator.hpp</text>
</g>
<!-- Node13&#45;&gt;Node14 -->
<g id="edge18" class="edge">
<title>Node13&#45;&gt;Node14</title>
<path fill="none" stroke="#191970" d="M299.1285,-72.9005C267.8975,-62.6933 217.7667,-46.3091 179.0429,-33.6531"/>
<polygon fill="#191970" stroke="#191970" points="180.0547,-30.3016 169.4621,-30.5218 177.88,-36.9552 180.0547,-30.3016"/>
</g>
<!-- Node15 -->
<g id="node16" class="node">
<title>Node15</title>
<polygon fill="none" stroke="#bfbfbf" points="206,-6 206,-25 271,-25 271,-6 206,-6"/>
<text text-anchor="middle" x="238.5" y="-13" font-family="Helvetica,sans-Serif" font-size="10.00" fill="#000000">functional</text>
</g>
<!-- Node13&#45;&gt;Node15 -->
<g id="edge19" class="edge">
<title>Node13&#45;&gt;Node15</title>
<path fill="none" stroke="#191970" d="M315.6052,-72.9005C301.0358,-62.0544 277.0978,-44.2339 259.7546,-31.3229"/>
<polygon fill="#191970" stroke="#191970" points="261.4823,-28.2457 251.3709,-25.0817 257.3022,-33.8606 261.4823,-28.2457"/>
</g>
<!-- Node16 -->
<g id="node17" class="node">
<title>Node16</title>
<polygon fill="none" stroke="#bfbfbf" points="289.5,-6 289.5,-25 379.5,-25 379.5,-6 289.5,-6"/>
<text text-anchor="middle" x="334.5" y="-13" font-family="Helvetica,sans-Serif" font-size="10.00" fill="#000000">sparsepp/spp.h</text>
</g>
<!-- Node13&#45;&gt;Node16 -->
<g id="edge20" class="edge">
<title>Node13&#45;&gt;Node16</title>
<path fill="none" stroke="#191970" d="M329.3597,-72.9005C330.2329,-63.149 331.6111,-47.7597 332.7206,-35.3695"/>
<polygon fill="#191970" stroke="#191970" points="336.2359,-35.354 333.6419,-25.0817 329.2639,-34.7296 336.2359,-35.354"/>
</g>
<!-- Node17 -->
<g id="node18" class="node">
<title>Node17</title>
<polygon fill="none" stroke="#bfbfbf" points="398,-6 398,-25 441,-25 441,-6 398,-6"/>
<text text-anchor="middle" x="419.5" y="-13" font-family="Helvetica,sans-Serif" font-size="10.00" fill="#000000">stack</text>
</g>
<!-- Node13&#45;&gt;Node17 -->
<g id="edge21" class="edge">
<title>Node13&#45;&gt;Node17</title>
<path fill="none" stroke="#191970" d="M341.5381,-72.9005C356.2693,-62.0544 380.4733,-44.2339 398.0092,-31.3229"/>
<polygon fill="#191970" stroke="#191970" points="400.5085,-33.8291 406.4861,-25.0817 396.3582,-28.1922 400.5085,-33.8291"/>
</g>
<!-- Node18 -->
<g id="node19" class="node">
<title>Node18</title>
<polygon fill="none" stroke="#bfbfbf" points="0,-6 0,-25 41,-25 41,-6 0,-6"/>
<text text-anchor="middle" x="20.5" y="-13" font-family="Helvetica,sans-Serif" font-size="10.00" fill="#000000">tuple</text>
</g>
<!-- Node13&#45;&gt;Node18 -->
<g id="edge22" class="edge">
<title>Node13&#45;&gt;Node18</title>
<path fill="none" stroke="#191970" d="M241.9734,-73.1251C186.2492,-65.4757 112.8404,-52.3555 50.5,-31 49.0788,-30.5132 47.6416,-29.9685 46.2057,-29.3824"/>
<polygon fill="#191970" stroke="#191970" points="47.48,-26.1155 36.935,-25.0888 44.5381,-32.4673 47.48,-26.1155"/>
</g>
<!-- Node20&#45;&gt;Node2 -->
<g id="edge26" class="edge">
<title>Node20&#45;&gt;Node2</title>
<path fill="none" stroke="#191970" d="M494.1844,-206.8749C503.3876,-189.1143 525.6502,-151.416 556.5,-134 656.9375,-77.2987 700.129,-119.2069 813.5,-98 819.3552,-96.9047 825.4748,-95.6368 831.5254,-94.3071"/>
<polygon fill="#191970" stroke="#191970" points="832.6032,-97.6518 841.5841,-92.0309 831.0582,-90.8244 832.6032,-97.6518"/>
</g>
<!-- Node21 -->
<g id="node22" class="node">
<title>Node21</title>
<g id="a_node22"><a xlink:href="TransitionsProxyCore_8hpp_source.html" target="_top" xlink:title="cldes/src/des/Transitions\lProxyCore.hpp">
<polygon fill="none" stroke="#000000" points="374,-134.5 374,-164.5 509,-164.5 509,-134.5 374,-134.5"/>
<text text-anchor="start" x="382" y="-152.5" font-family="Helvetica,sans-Serif" font-size="10.00" fill="#000000">cldes/src/des/Transitions</text>
<text text-anchor="middle" x="441.5" y="-141.5" font-family="Helvetica,sans-Serif" font-size="10.00" fill="#000000">ProxyCore.hpp</text>
</a>
</g>
</g>
<!-- Node20&#45;&gt;Node21 -->
<g id="edge27" class="edge">
<title>Node20&#45;&gt;Node21</title>
<path fill="none" stroke="#191970" d="M482.6228,-206.9005C476.3017,-198.0773 466.674,-184.6387 458.3231,-172.9822"/>
<polygon fill="#191970" stroke="#191970" points="460.931,-170.6125 452.2619,-164.5218 455.2406,-174.6893 460.931,-170.6125"/>
</g>
<!-- Node22&#45;&gt;Node1 -->
<g id="edge30" class="edge">
<title>Node22&#45;&gt;Node1</title>
<path fill="none" stroke="#191970" d="M857.2623,-201.2967C841.2522,-190.351 819.7437,-175.6462 803.7344,-164.701"/>
<polygon fill="#191970" stroke="#191970" points="805.7064,-161.8095 795.4759,-159.055 801.7557,-167.5881 805.7064,-161.8095"/>
</g>
<!-- Node22&#45;&gt;Node2 -->
<g id="edge29" class="edge">
<title>Node22&#45;&gt;Node2</title>
<path fill="none" stroke="#191970" d="M879.5,-201.389C879.5,-177.0735 879.5,-129.2644 879.5,-102.2698"/>
<polygon fill="#191970" stroke="#191970" points="883.0001,-102.1041 879.5,-92.1042 876.0001,-102.1042 883.0001,-102.1041"/>
</g>
<!-- Node22&#45;&gt;Node6 -->
<g id="edge31" class="edge">
<title>Node22&#45;&gt;Node6</title>
<path fill="none" stroke="#191970" d="M887.9352,-201.2887C898.1436,-183.7498 916.5868,-154.6837 937.5,-134 952.0081,-119.6512 970.973,-106.6693 986.2019,-97.3288"/>
<polygon fill="#191970" stroke="#191970" points="988.3332,-100.1329 995.1281,-92.0039 984.7469,-94.1213 988.3332,-100.1329"/>
</g>
<!-- Node23 -->
<g id="node24" class="node">
<title>Node23</title>
<g id="a_node24"><a xlink:href="SyncSysProxyFwd_8hpp_source.html" target="_top" xlink:title="cldes/src/operations\l/SyncSysProxyFwd.hpp">
<polygon fill="none" stroke="#000000" points="565.5,-134.5 565.5,-164.5 693.5,-164.5 693.5,-134.5 565.5,-134.5"/>
<text text-anchor="start" x="573.5" y="-152.5" font-family="Helvetica,sans-Serif" font-size="10.00" fill="#000000">cldes/src/operations</text>
<text text-anchor="middle" x="629.5" y="-141.5" font-family="Helvetica,sans-Serif" font-size="10.00" fill="#000000">/SyncSysProxyFwd.hpp</text>
</a>
</g>
</g>
<!-- Node22&#45;&gt;Node23 -->
<g id="edge32" class="edge">
<title>Node22&#45;&gt;Node23</title>
<path fill="none" stroke="#191970" d="M823.3951,-201.4639C785.5715,-191.3272 735.5088,-177.9104 695.7281,-167.2491"/>
<polygon fill="#191970" stroke="#191970" points="696.4148,-163.8097 685.8496,-164.6017 694.6027,-170.5711 696.4148,-163.8097"/>
</g>
<!-- Node24 -->
<g id="node25" class="node">
<title>Node24</title>
<g id="a_node25"><a xlink:href="SyncSysProxyCore_8hpp.html" target="_top" xlink:title="cldes/src/operations\l/SyncSysProxyCore.hpp">
<polygon fill="none" stroke="#000000" points="946,-134.5 946,-164.5 1077,-164.5 1077,-134.5 946,-134.5"/>
<text text-anchor="start" x="954" y="-152.5" font-family="Helvetica,sans-Serif" font-size="10.00" fill="#000000">cldes/src/operations</text>
<text text-anchor="middle" x="1011.5" y="-141.5" font-family="Helvetica,sans-Serif" font-size="10.00" fill="#000000">/SyncSysProxyCore.hpp</text>
</a>
</g>
</g>
<!-- Node22&#45;&gt;Node24 -->
<g id="edge34" class="edge">
<title>Node22&#45;&gt;Node24</title>
<path fill="none" stroke="#191970" d="M909.1234,-201.4639C927.8436,-191.9619 952.2421,-179.5779 972.5246,-169.283"/>
<polygon fill="#191970" stroke="#191970" points="974.1858,-172.3649 981.5188,-164.7177 971.0175,-166.1229 974.1858,-172.3649"/>
</g>
<!-- Node23&#45;&gt;Node8 -->
<g id="edge33" class="edge">
<title>Node23&#45;&gt;Node8</title>
<path fill="none" stroke="#191970" d="M565.4117,-137.7382C524.1546,-128.7144 475.9842,-114.9443 463.5,-98 449.1366,-78.5052 463.6883,-51.1288 476.6073,-33.3527"/>
<polygon fill="#191970" stroke="#191970" points="479.7001,-35.0751 483.0525,-25.0246 474.1642,-30.7908 479.7001,-35.0751"/>
</g>
</g>
</svg>
