<?xml version="1.0" encoding="UTF-8" standalone="no"?>
<!DOCTYPE svg PUBLIC "-//W3C//DTD SVG 1.1//EN"
 "http://www.w3.org/Graphics/SVG/1.1/DTD/svg11.dtd">
<!-- Generated by graphviz version 2.40.1 (20161225.0304)
 -->
<!-- Title: cldes Pages: 1 -->
<svg width="186pt" height="255pt"
 viewBox="0.00 0.00 186.00 255.00" xmlns="http://www.w3.org/2000/svg" xmlns:xlink="http://www.w3.org/1999/xlink">
<g id="graph0" class="graph" transform="scale(1 1) rotate(0) translate(4 251)">
<title>cldes</title>
<g id="clust1" class="cluster">
<title>clusterdir_a426a4c39826089a443490eb001a3940</title>
<g id="a_clust1"><a xlink:href="dir_a426a4c39826089a443490eb001a3940.html" target="_top" xlink:title="libcldes">
<polygon fill="#ddddee" stroke="#000000" points="8,-8 8,-239 170,-239 170,-8 8,-8"/>
<text text-anchor="middle" x="89" y="-227" font-family="Helvetica,sans-Serif" font-size="10.00" fill="#000000">libcldes</text>
</a>
</g>
</g>
<g id="clust2" class="cluster">
<title>clusterdir_a21de0c60a5fddf4c7a126c055ade3f0</title>
<g id="a_clust2"><a xlink:href="dir_a21de0c60a5fddf4c7a126c055ade3f0.html" target="_top">
<polygon fill="#eeeeff" stroke="#000000" points="16,-16 16,-212 162,-212 162,-16 16,-16"/>
</a>
</g>
</g>
<!-- dir_a21de0c60a5fddf4c7a126c055ade3f0 -->
<g id="node1" class="node">
<title>dir_a21de0c60a5fddf4c7a126c055ade3f0</title>
<text text-anchor="middle" x="127" y="-183.5" font-family="Helvetica,sans-Serif" font-size="10.00" fill="#000000">cldes</text>
</g>
<!-- dir_91ba3bf0a5ed98d4641de9315faca798 -->
<g id="node3" class="node">
<title>dir_91ba3bf0a5ed98d4641de9315faca798</title>
<g id="a_node3"><a xlink:href="dir_91ba3bf0a5ed98d4641de9315faca798.html" target="_top" xlink:title="operations">
<polygon fill="#ffffff" stroke="#000000" points="121,-132 53,-132 53,-96 121,-96 121,-132"/>
<text text-anchor="middle" x="87" y="-111.5" font-family="Helvetica,sans-Serif" font-size="10.00" fill="#000000">operations</text>
</a>
</g>
</g>
<!-- dir_a21de0c60a5fddf4c7a126c055ade3f0&#45;&gt;dir_91ba3bf0a5ed98d4641de9315faca798 -->
<g id="edge2" class="edge">
<title>dir_a21de0c60a5fddf4c7a126c055ade3f0&#45;&gt;dir_91ba3bf0a5ed98d4641de9315faca798</title>
<path fill="none" stroke="#000000" d="M116.9063,-167.8314C112.4403,-159.7925 107.0925,-150.1666 102.1621,-141.2918"/>
<polygon fill="#000000" stroke="#000000" points="105.1456,-139.4551 97.2296,-132.4133 99.0265,-142.8546 105.1456,-139.4551"/>
<g id="a_edge2&#45;headlabel"><a xlink:href="dir_000001_000006.html" target="_top" xlink:title="1">
<text text-anchor="middle" x="109.3732" y="-138.7185" font-family="Helvetica,sans-Serif" font-size="10.00" fill="#000000">1</text>
</a>
</g>
</g>
<!-- dir_02fe0f8a18cb9a995f747a1e3ea45571 -->
<g id="node4" class="node">
<title>dir_02fe0f8a18cb9a995f747a1e3ea45571</title>
<g id="a_node4"><a xlink:href="dir_02fe0f8a18cb9a995f747a1e3ea45571.html" target="_top" xlink:title="src">
<polygon fill="#ffffff" stroke="#ff0000" points="140,-60 86,-60 86,-24 140,-24 140,-60"/>
<text text-anchor="middle" x="113" y="-39.5" font-family="Helvetica,sans-Serif" font-size="10.00" fill="#000000">src</text>
</a>
</g>
</g>
<!-- dir_a21de0c60a5fddf4c7a126c055ade3f0&#45;&gt;dir_02fe0f8a18cb9a995f747a1e3ea45571 -->
<g id="edge3" class="edge">
<title>dir_a21de0c60a5fddf4c7a126c055ade3f0&#45;&gt;dir_02fe0f8a18cb9a995f747a1e3ea45571</title>
<path fill="none" stroke="#000000" d="M129.5522,-167.9537C131.6779,-149.6989 133.7998,-120.7236 130,-96 128.6626,-87.2979 126.1796,-78.074 123.5166,-69.759"/>
<polygon fill="#000000" stroke="#000000" points="126.7846,-68.4982 120.2439,-60.1634 120.1594,-70.7579 126.7846,-68.4982"/>
<g id="a_edge3&#45;headlabel"><a xlink:href="dir_000001_000002.html" target="_top" xlink:title="2">
<text text-anchor="middle" x="130.6322" y="-68.4838" font-family="Helvetica,sans-Serif" font-size="10.00" fill="#000000">2</text>
</a>
</g>
</g>
<!-- dir_92c9fead555c3420e41f0fad420971aa -->
<g id="node2" class="node">
<title>dir_92c9fead555c3420e41f0fad420971aa</title>
<g id="a_node2"><a xlink:href="dir_92c9fead555c3420e41f0fad420971aa.html" target="_top" xlink:title="backend">
<polygon fill="#ffffff" stroke="#000000" points="82,-204 24,-204 24,-168 82,-168 82,-204"/>
<text text-anchor="middle" x="53" y="-183.5" font-family="Helvetica,sans-Serif" font-size="10.00" fill="#000000">backend</text>
</a>
</g>
</g>
<!-- dir_91ba3bf0a5ed98d4641de9315faca798&#45;&gt;dir_02fe0f8a18cb9a995f747a1e3ea45571 -->
<g id="edge1" class="edge">
<title>dir_91ba3bf0a5ed98d4641de9315faca798&#45;&gt;dir_02fe0f8a18cb9a995f747a1e3ea45571</title>
<path fill="none" stroke="#000000" d="M93.5609,-95.8314C96.4027,-87.9617 99.7937,-78.5712 102.9419,-69.8533"/>
<polygon fill="#000000" stroke="#000000" points="106.2462,-71.0076 106.3508,-60.4133 99.6623,-68.63 106.2462,-71.0076"/>
<g id="a_edge1&#45;headlabel"><a xlink:href="dir_000006_000002.html" target="_top" xlink:title="1">
<text text-anchor="middle" x="107.6959" y="-72.8528" font-family="Helvetica,sans-Serif" font-size="10.00" fill="#000000">1</text>
</a>
</g>
</g>
</g>
</svg>
