<?xml version="1.0" encoding="UTF-8" standalone="no"?>
<!DOCTYPE svg PUBLIC "-//W3C//DTD SVG 1.1//EN"
 "http://www.w3.org/Graphics/SVG/1.1/DTD/svg11.dtd">
<!-- Generated by graphviz version 2.40.1 (20161225.0304)
 -->
<!-- Title: Graphical Class Hierarchy Pages: 1 -->
<svg width="347pt" height="137pt"
 viewBox="0.00 0.00 347.00 137.00" xmlns="http://www.w3.org/2000/svg" xmlns:xlink="http://www.w3.org/1999/xlink">
<g id="graph0" class="graph" transform="scale(1 1) rotate(0) translate(4 133)">
<title>Graphical Class Hierarchy</title>
<!-- Node0 -->
<g id="node1" class="node">
<title>Node0</title>
<g id="a_node1"><a xlink:href="classcldes_1_1DESystemBase.html" target="_top" xlink:title="A discrete&#45;events system base abstract class. ">
<polygon fill="none" stroke="#000000" points="0,-49.5 0,-79.5 150,-79.5 150,-49.5 0,-49.5"/>
<text text-anchor="start" x="8" y="-67.5" font-family="Helvetica,sans-Serif" font-size="10.00" fill="#000000">cldes::DESystemBase</text>
<text text-anchor="middle" x="75" y="-56.5" font-family="Helvetica,sans-Serif" font-size="10.00" fill="#000000">&lt; NEvents, StorageIndex &gt;</text>
</a>
</g>
</g>
<!-- Node1 -->
<g id="node2" class="node">
<title>Node1</title>
<g id="a_node2"><a xlink:href="classcldes_1_1DESystem.html" target="_top" xlink:title="A discrete&#45;events system on host memory. ">
<polygon fill="none" stroke="#000000" points="186,-98.5 186,-128.5 339,-128.5 339,-98.5 186,-98.5"/>
<text text-anchor="start" x="194" y="-116.5" font-family="Helvetica,sans-Serif" font-size="10.00" fill="#000000">cldes::DESystem&lt; NEvents,</text>
<text text-anchor="middle" x="262.5" y="-105.5" font-family="Helvetica,sans-Serif" font-size="10.00" fill="#000000"> StorageIndex &gt;</text>
</a>
</g>
</g>
<!-- Node0&#45;&gt;Node1 -->
<g id="edge1" class="edge">
<title>Node0&#45;&gt;Node1</title>
<path fill="none" stroke="#191970" d="M142.4345,-82.1229C162.9479,-87.4837 185.2903,-93.3225 205.0784,-98.4938"/>
<polygon fill="#191970" stroke="#191970" points="143.0905,-78.6768 132.5304,-79.5346 141.3205,-85.4494 143.0905,-78.6768"/>
</g>
<!-- Node2 -->
<g id="node3" class="node">
<title>Node2</title>
<g id="a_node3"><a xlink:href="classcldes_1_1DESystemCL.html" target="_top" xlink:title="Discrete&#45;Events System on device memory. ">
<polygon fill="none" stroke="#000000" points="191.5,-49.5 191.5,-79.5 333.5,-79.5 333.5,-49.5 191.5,-49.5"/>
<text text-anchor="start" x="199.5" y="-67.5" font-family="Helvetica,sans-Serif" font-size="10.00" fill="#000000">cldes::DESystemCL&lt;</text>
<text text-anchor="middle" x="262.5" y="-56.5" font-family="Helvetica,sans-Serif" font-size="10.00" fill="#000000"> NEvents, StorageIndex &gt;</text>
</a>
</g>
</g>
<!-- Node0&#45;&gt;Node2 -->
<g id="edge2" class="edge">
<title>Node0&#45;&gt;Node2</title>
<path fill="none" stroke="#191970" d="M160.4283,-64.5C170.7372,-64.5 181.1815,-64.5 191.2571,-64.5"/>
<polygon fill="#191970" stroke="#191970" points="160.1831,-61.0001 150.1831,-64.5 160.183,-68.0001 160.1831,-61.0001"/>
</g>
<!-- Node3 -->
<g id="node4" class="node">
<title>Node3</title>
<g id="a_node4"><a xlink:href="classcldes_1_1op_1_1SyncSysProxy.html" target="_top" xlink:title="Parallel composition return type. ">
<polygon fill="none" stroke="#000000" points="187.5,-.5 187.5,-30.5 337.5,-30.5 337.5,-.5 187.5,-.5"/>
<text text-anchor="start" x="195.5" y="-18.5" font-family="Helvetica,sans-Serif" font-size="10.00" fill="#000000">cldes::op::SyncSysProxy</text>
<text text-anchor="middle" x="262.5" y="-7.5" font-family="Helvetica,sans-Serif" font-size="10.00" fill="#000000">&lt; NEvents, StorageIndex &gt;</text>
</a>
</g>
</g>
<!-- Node0&#45;&gt;Node3 -->
<g id="edge3" class="edge">
<title>Node0&#45;&gt;Node3</title>
<path fill="none" stroke="#191970" d="M142.4345,-46.8771C162.9479,-41.5163 185.2903,-35.6775 205.0784,-30.5062"/>
<polygon fill="#191970" stroke="#191970" points="141.3205,-43.5506 132.5304,-49.4654 143.0905,-50.3232 141.3205,-43.5506"/>
</g>
</g>
</svg>
