<?xml version="1.0" encoding="UTF-8" standalone="no"?>
<!DOCTYPE svg PUBLIC "-//W3C//DTD SVG 1.1//EN"
 "http://www.w3.org/Graphics/SVG/1.1/DTD/svg11.dtd">
<!-- Generated by graphviz version 2.40.1 (20161225.0304)
 -->
<!-- Title: SyncSysProxy.hpp Pages: 1 -->
<!--zoomable 218 -->
<svg id="main" version="1.1" xmlns="http://www.w3.org/2000/svg" xmlns:xlink="http://www.w3.org/1999/xlink" xml:space="preserve" onload="init(evt)">
<style type="text/css"><![CDATA[
.edge:hover path { stroke: red; }
.edge:hover polygon { stroke: red; fill: red; }
]]></style>
<script type="text/javascript"><![CDATA[
var edges = document.getElementsByTagName('g');
if (edges && edges.length) {
  for (var i=0;i<edges.length;i++) {
    if (edges[i].id.substr(0,4)=='edge') {
      edges[i].setAttribute('class','edge');
    }
  }
}
]]></script>
        <defs>
                <circle id="rim" cx="0" cy="0" r="7"/>
                <circle id="rim2" cx="0" cy="0" r="3.5"/>
                <g id="zoomPlus">
                        <use xlink:href="#rim" fill="#404040">
                                <set attributeName="fill" to="#808080" begin="zoomplus.mouseover" end="zoomplus.mouseout"/>
                        </use>
                        <path d="M-4,0h8M0,-4v8" fill="none" stroke="white" stroke-width="1.5" pointer-events="none"/>
                </g>
                <g id="zoomMin">
                        <use xlink:href="#rim" fill="#404040">
                                <set attributeName="fill" to="#808080" begin="zoomminus.mouseover" end="zoomminus.mouseout"/>
                        </use>
                        <path d="M-4,0h8" fill="none" stroke="white" stroke-width="1.5" pointer-events="none"/>
                </g>
                <g id="dirArrow">
                        <path fill="none" stroke="white" stroke-width="1.5" d="M0,-3.0v7 M-2.5,-0.5L0,-3.0L2.5,-0.5"/>
                </g>
               <g id="resetDef">
                       <use xlink:href="#rim2" fill="#404040">
                               <set attributeName="fill" to="#808080" begin="reset.mouseover" end="reset.mouseout"/>
                       </use>
               </g>
        </defs>

<script type="text/javascript">
var viewWidth = 699;
var viewHeight = 218;
var sectionId = 'dynsection-0';
</script>
<script xlink:href="svgpan.js"/>
<svg id="graph" class="graph">
<g id="viewport">
<title>SyncSysProxy.hpp</title>
<!-- Node0 -->
<g id="node1" class="node">
<title>Node0</title>
<polygon fill="#bfbfbf" stroke="#000000" points="313.5,-190.5 313.5,-209.5 417.5,-209.5 417.5,-190.5 313.5,-190.5"/>
<text text-anchor="middle" x="365.5" y="-197.5" font-family="Helvetica,sans-Serif" font-size="10.00" fill="#000000">SyncSysProxy.hpp</text>
</g>
<!-- Node1 -->
<g id="node2" class="node">
<title>Node1</title>
<g id="a_node2"><a xlink:href="Constants_8hpp_source.html" target="_top" xlink:title="cldes/Constants.hpp">
<polygon fill="none" stroke="#000000" points="308,-62 308,-81 423,-81 423,-62 308,-62"/>
<text text-anchor="middle" x="365.5" y="-69" font-family="Helvetica,sans-Serif" font-size="10.00" fill="#000000">cldes/Constants.hpp</text>
</a>
</g>
</g>
<!-- Node0&#45;&gt;Node1 -->
<g id="edge1" class="edge">
<title>Node0&#45;&gt;Node1</title>
<path fill="none" stroke="#191970" d="M365.5,-190.3416C365.5,-169.4114 365.5,-119.504 365.5,-91.4762"/>
<polygon fill="#191970" stroke="#191970" points="369.0001,-91.2704 365.5,-81.2705 362.0001,-91.2705 369.0001,-91.2704"/>
</g>
<!-- Node5 -->
<g id="node6" class="node">
<title>Node5</title>
<g id="a_node6"><a xlink:href="DESystemBase_8hpp.html" target="_top" xlink:title="cldes/DESystemBase.hpp">
<polygon fill="none" stroke="#000000" points="197.5,-129 197.5,-148 337.5,-148 337.5,-129 197.5,-129"/>
<text text-anchor="middle" x="267.5" y="-136" font-family="Helvetica,sans-Serif" font-size="10.00" fill="#000000">cldes/DESystemBase.hpp</text>
</a>
</g>
</g>
<!-- Node0&#45;&gt;Node5 -->
<g id="edge5" class="edge">
<title>Node0&#45;&gt;Node5</title>
<path fill="none" stroke="#191970" d="M350.1875,-190.3906C334.4376,-180.5067 309.6877,-164.9749 291.3663,-153.4773"/>
<polygon fill="#191970" stroke="#191970" points="293.0357,-150.3929 282.705,-148.0419 289.3148,-156.3221 293.0357,-150.3929"/>
</g>
<!-- Node6 -->
<g id="node7" class="node">
<title>Node6</title>
<g id="a_node7"><a xlink:href="EventsSet_8hpp_source.html" target="_top" xlink:title="cldes/EventsSet.hpp">
<polygon fill="none" stroke="#000000" points="0,-62 0,-81 115,-81 115,-62 0,-62"/>
<text text-anchor="middle" x="57.5" y="-69" font-family="Helvetica,sans-Serif" font-size="10.00" fill="#000000">cldes/EventsSet.hpp</text>
</a>
</g>
</g>
<!-- Node0&#45;&gt;Node6 -->
<g id="edge16" class="edge">
<title>Node0&#45;&gt;Node6</title>
<path fill="none" stroke="#191970" d="M313.3738,-190.8543C277.3583,-183.4858 228.8617,-171.4534 188.5,-154 146.7543,-135.9481 102.9588,-105.7141 78.0636,-87.2904"/>
<polygon fill="#191970" stroke="#191970" points="79.8855,-84.2819 69.7856,-81.0816 75.6853,-89.8818 79.8855,-84.2819"/>
</g>
<!-- Node13 -->
<g id="node14" class="node">
<title>Node13</title>
<g id="a_node14"><a xlink:href="SyncSysProxyFwd_8hpp_source.html" target="_top" xlink:title="cldes/src/operations\l/SyncSysProxyFwd.hpp">
<polygon fill="none" stroke="#000000" points="393.5,-123.5 393.5,-153.5 521.5,-153.5 521.5,-123.5 393.5,-123.5"/>
<text text-anchor="start" x="401.5" y="-141.5" font-family="Helvetica,sans-Serif" font-size="10.00" fill="#000000">cldes/src/operations</text>
<text text-anchor="middle" x="457.5" y="-130.5" font-family="Helvetica,sans-Serif" font-size="10.00" fill="#000000">/SyncSysProxyFwd.hpp</text>
</a>
</g>
</g>
<!-- Node0&#45;&gt;Node13 -->
<g id="edge17" class="edge">
<title>Node0&#45;&gt;Node13</title>
<path fill="none" stroke="#191970" d="M379.875,-190.3906C392.3261,-182.0673 410.7686,-169.7389 426.5534,-159.1872"/>
<polygon fill="#191970" stroke="#191970" points="428.6258,-162.0118 434.9943,-153.5446 424.7356,-156.1923 428.6258,-162.0118"/>
</g>
<!-- Node14 -->
<g id="node15" class="node">
<title>Node14</title>
<g id="a_node15"><a xlink:href="SyncSysProxyCore_8hpp.html" target="_top" xlink:title="cldes/src/operations\l/SyncSysProxyCore.hpp">
<polygon fill="none" stroke="#000000" points="540,-123.5 540,-153.5 671,-153.5 671,-123.5 540,-123.5"/>
<text text-anchor="start" x="548" y="-141.5" font-family="Helvetica,sans-Serif" font-size="10.00" fill="#000000">cldes/src/operations</text>
<text text-anchor="middle" x="605.5" y="-130.5" font-family="Helvetica,sans-Serif" font-size="10.00" fill="#000000">/SyncSysProxyCore.hpp</text>
</a>
</g>
</g>
<!-- Node0&#45;&gt;Node14 -->
<g id="edge19" class="edge">
<title>Node0&#45;&gt;Node14</title>
<path fill="none" stroke="#191970" d="M402.7367,-190.4581C438.4791,-181.2991 493.3213,-167.2458 536.9612,-156.0631"/>
<polygon fill="#191970" stroke="#191970" points="537.8392,-159.4512 546.6574,-153.5784 536.1015,-152.6703 537.8392,-159.4512"/>
</g>
<!-- Node2 -->
<g id="node3" class="node">
<title>Node2</title>
<polygon fill="none" stroke="#bfbfbf" points="336.5,-.5 336.5,-19.5 416.5,-19.5 416.5,-.5 336.5,-.5"/>
<text text-anchor="middle" x="376.5" y="-7.5" font-family="Helvetica,sans-Serif" font-size="10.00" fill="#000000">Eigen/Sparse</text>
</g>
<!-- Node1&#45;&gt;Node2 -->
<g id="edge2" class="edge">
<title>Node1&#45;&gt;Node2</title>
<path fill="none" stroke="#191970" d="M367.2188,-61.8906C368.7435,-53.3657 371.0198,-40.6392 372.9364,-29.9235"/>
<polygon fill="#191970" stroke="#191970" points="376.4416,-30.2049 374.757,-19.7449 369.5509,-28.9724 376.4416,-30.2049"/>
</g>
<!-- Node3 -->
<g id="node4" class="node">
<title>Node3</title>
<polygon fill="none" stroke="#bfbfbf" points="129.5,-.5 129.5,-19.5 173.5,-19.5 173.5,-.5 129.5,-.5"/>
<text text-anchor="middle" x="151.5" y="-7.5" font-family="Helvetica,sans-Serif" font-size="10.00" fill="#000000">bitset</text>
</g>
<!-- Node1&#45;&gt;Node3 -->
<g id="edge3" class="edge">
<title>Node1&#45;&gt;Node3</title>
<path fill="none" stroke="#191970" d="M332.0625,-61.8906C291.4018,-50.2054 223.272,-30.6261 183.3448,-19.1516"/>
<polygon fill="#191970" stroke="#191970" points="184.1735,-15.7482 173.5957,-16.3499 182.24,-22.4759 184.1735,-15.7482"/>
</g>
<!-- Node4 -->
<g id="node5" class="node">
<title>Node4</title>
<polygon fill="none" stroke="#bfbfbf" points="274.5,-.5 274.5,-19.5 318.5,-19.5 318.5,-.5 274.5,-.5"/>
<text text-anchor="middle" x="296.5" y="-7.5" font-family="Helvetica,sans-Serif" font-size="10.00" fill="#000000">limits</text>
</g>
<!-- Node1&#45;&gt;Node4 -->
<g id="edge4" class="edge">
<title>Node1&#45;&gt;Node4</title>
<path fill="none" stroke="#191970" d="M354.7188,-61.8906C344.1474,-52.4683 327.8175,-37.9134 315.1397,-26.6137"/>
<polygon fill="#191970" stroke="#191970" points="317.2272,-23.7858 307.4333,-19.7449 312.5696,-29.0114 317.2272,-23.7858"/>
</g>
<!-- Node5&#45;&gt;Node1 -->
<g id="edge6" class="edge">
<title>Node5&#45;&gt;Node1</title>
<path fill="none" stroke="#191970" d="M281.541,-128.9005C297.6238,-117.9052 324.1906,-99.7422 343.1316,-86.7927"/>
<polygon fill="#191970" stroke="#191970" points="345.2052,-89.6148 351.485,-81.0817 341.2545,-83.8362 345.2052,-89.6148"/>
</g>
<!-- Node5&#45;&gt;Node6 -->
<g id="edge7" class="edge">
<title>Node5&#45;&gt;Node6</title>
<path fill="none" stroke="#191970" d="M237.4121,-128.9005C200.532,-117.134 137.9242,-97.1591 97.1468,-84.1492"/>
<polygon fill="#191970" stroke="#191970" points="98.1228,-80.7868 87.5321,-81.0817 95.9951,-87.4557 98.1228,-80.7868"/>
</g>
<!-- Node7 -->
<g id="node8" class="node">
<title>Node7</title>
<g id="a_node8"><a xlink:href="DESystemBaseFwd_8hpp_source.html" target="_top" xlink:title="cldes/src/des/DESystemBase\lFwd.hpp">
<polygon fill="none" stroke="#000000" points="441,-56.5 441,-86.5 598,-86.5 598,-56.5 441,-56.5"/>
<text text-anchor="start" x="449" y="-74.5" font-family="Helvetica,sans-Serif" font-size="10.00" fill="#000000">cldes/src/des/DESystemBase</text>
<text text-anchor="middle" x="519.5" y="-63.5" font-family="Helvetica,sans-Serif" font-size="10.00" fill="#000000">Fwd.hpp</text>
</a>
</g>
</g>
<!-- Node5&#45;&gt;Node7 -->
<g id="edge9" class="edge">
<title>Node5&#45;&gt;Node7</title>
<path fill="none" stroke="#191970" d="M303.3378,-128.9717C342.2384,-118.6291 405.2169,-101.8848 453.1861,-89.1311"/>
<polygon fill="#191970" stroke="#191970" points="454.109,-92.5074 462.8739,-86.5553 452.3103,-85.7424 454.109,-92.5074"/>
</g>
<!-- Node12 -->
<g id="node13" class="node">
<title>Node12</title>
<g id="a_node13"><a xlink:href="DESystemBaseCore_8hpp_source.html" target="_top" xlink:title="cldes/src/des/DESystemBase\lCore.hpp">
<polygon fill="none" stroke="#000000" points="133,-56.5 133,-86.5 290,-86.5 290,-56.5 133,-56.5"/>
<text text-anchor="start" x="141" y="-74.5" font-family="Helvetica,sans-Serif" font-size="10.00" fill="#000000">cldes/src/des/DESystemBase</text>
<text text-anchor="middle" x="211.5" y="-63.5" font-family="Helvetica,sans-Serif" font-size="10.00" fill="#000000">Core.hpp</text>
</a>
</g>
</g>
<!-- Node5&#45;&gt;Node12 -->
<g id="edge15" class="edge">
<title>Node5&#45;&gt;Node12</title>
<path fill="none" stroke="#191970" d="M259.4766,-128.9005C251.9574,-119.9043 240.4277,-106.1099 230.5556,-94.2986"/>
<polygon fill="#191970" stroke="#191970" points="233.1541,-91.95 224.0555,-86.5218 227.7831,-96.4392 233.1541,-91.95"/>
</g>
<!-- Node6&#45;&gt;Node3 -->
<g id="edge8" class="edge">
<title>Node6&#45;&gt;Node3</title>
<path fill="none" stroke="#191970" d="M72.1875,-61.8906C87.2256,-52.0519 110.8176,-36.6167 128.3667,-25.1351"/>
<polygon fill="#191970" stroke="#191970" points="130.4637,-27.9457 136.9156,-19.5419 126.6313,-22.088 130.4637,-27.9457"/>
</g>
<!-- Node7&#45;&gt;Node2 -->
<g id="edge10" class="edge">
<title>Node7&#45;&gt;Node2</title>
<path fill="none" stroke="#191970" d="M484.5183,-56.4554C461.1816,-46.419 430.7502,-33.3314 408.137,-23.6061"/>
<polygon fill="#191970" stroke="#191970" points="409.2292,-20.2659 398.6599,-19.5303 406.4636,-26.6965 409.2292,-20.2659"/>
</g>
<!-- Node8 -->
<g id="node9" class="node">
<title>Node8</title>
<polygon fill="none" stroke="#bfbfbf" points="626.5,-.5 626.5,-19.5 690.5,-19.5 690.5,-.5 626.5,-.5"/>
<text text-anchor="middle" x="658.5" y="-7.5" font-family="Helvetica,sans-Serif" font-size="10.00" fill="#000000">algorithm</text>
</g>
<!-- Node7&#45;&gt;Node8 -->
<g id="edge11" class="edge">
<title>Node7&#45;&gt;Node8</title>
<path fill="none" stroke="#191970" d="M553.5032,-56.4554C576.1871,-46.419 605.7673,-33.3314 627.7479,-23.6061"/>
<polygon fill="#191970" stroke="#191970" points="629.2312,-26.7772 636.9599,-19.5303 626.3989,-20.3758 629.2312,-26.7772"/>
</g>
<!-- Node9 -->
<g id="node10" class="node">
<title>Node9</title>
<polygon fill="none" stroke="#bfbfbf" points="550.5,-.5 550.5,-19.5 608.5,-19.5 608.5,-.5 550.5,-.5"/>
<text text-anchor="middle" x="579.5" y="-7.5" font-family="Helvetica,sans-Serif" font-size="10.00" fill="#000000">memory</text>
</g>
<!-- Node7&#45;&gt;Node9 -->
<g id="edge12" class="edge">
<title>Node7&#45;&gt;Node9</title>
<path fill="none" stroke="#191970" d="M534.3315,-56.2977C542.9204,-47.4941 553.7602,-36.3833 562.6679,-27.2529"/>
<polygon fill="#191970" stroke="#191970" points="565.4152,-29.4489 569.8932,-19.8469 560.4047,-24.5606 565.4152,-29.4489"/>
</g>
<!-- Node10 -->
<g id="node11" class="node">
<title>Node10</title>
<polygon fill="none" stroke="#bfbfbf" points="434.5,-.5 434.5,-19.5 466.5,-19.5 466.5,-.5 434.5,-.5"/>
<text text-anchor="middle" x="450.5" y="-7.5" font-family="Helvetica,sans-Serif" font-size="10.00" fill="#000000">set</text>
</g>
<!-- Node7&#45;&gt;Node10 -->
<g id="edge13" class="edge">
<title>Node7&#45;&gt;Node10</title>
<path fill="none" stroke="#191970" d="M502.4438,-56.2977C492.3671,-47.3163 479.596,-35.9334 469.2389,-26.702"/>
<polygon fill="#191970" stroke="#191970" points="471.3417,-23.8879 461.5478,-19.8469 466.6841,-29.1135 471.3417,-23.8879"/>
</g>
<!-- Node11 -->
<g id="node12" class="node">
<title>Node11</title>
<polygon fill="none" stroke="#bfbfbf" points="485,-.5 485,-19.5 532,-19.5 532,-.5 485,-.5"/>
<text text-anchor="middle" x="508.5" y="-7.5" font-family="Helvetica,sans-Serif" font-size="10.00" fill="#000000">vector</text>
</g>
<!-- Node7&#45;&gt;Node11 -->
<g id="edge14" class="edge">
<title>Node7&#45;&gt;Node11</title>
<path fill="none" stroke="#191970" d="M516.7809,-56.2977C515.3494,-48.2945 513.5769,-38.3843 512.0395,-29.7889"/>
<polygon fill="#191970" stroke="#191970" points="515.4673,-29.0744 510.2612,-19.8469 508.5767,-30.307 515.4673,-29.0744"/>
</g>
<!-- Node13&#45;&gt;Node8 -->
<g id="edge18" class="edge">
<title>Node13&#45;&gt;Node8</title>
<path fill="none" stroke="#191970" d="M513.3701,-123.3967C549.441,-112.8832 592.3623,-98.7063 607.5,-87 627.4339,-71.5847 642.1133,-46.0776 650.4772,-28.6787"/>
<polygon fill="#191970" stroke="#191970" points="653.6943,-30.0594 654.664,-19.509 647.3267,-27.152 653.6943,-30.0594"/>
</g>
</g>
</svg>
        <g id="navigator" transform="translate(0 0)" fill="#404254">
                <rect fill="#f2f5e9" fill-opacity="0.5" stroke="#606060" stroke-width=".5" x="0" y="0" width="60" height="60"/>
                <use id="zoomplus" xlink:href="#zoomPlus" x="17" y="9" onmousedown="handleZoom(evt,'in')"/>
                <use id="zoomminus" xlink:href="#zoomMin" x="42" y="9" onmousedown="handleZoom(evt,'out')"/>
                <use id="reset" xlink:href="#resetDef" x="30" y="36" onmousedown="handleReset()"/>
                <g id="arrowUp" xlink:href="#dirArrow" transform="translate(30 24)" onmousedown="handlePan(0,-1)">
                  <use xlink:href="#rim" fill="#404040">
                        <set attributeName="fill" to="#808080" begin="arrowUp.mouseover" end="arrowUp.mouseout"/>
                  </use>
                  <path fill="none" stroke="white" stroke-width="1.5" d="M0,-3.0v7 M-2.5,-0.5L0,-3.0L2.5,-0.5"/>
                </g>
                <g id="arrowRight" xlink:href="#dirArrow" transform="rotate(90) translate(36 -43)" onmousedown="handlePan(1,0)">
                  <use xlink:href="#rim" fill="#404040">
                        <set attributeName="fill" to="#808080" begin="arrowRight.mouseover" end="arrowRight.mouseout"/>
                  </use>
                  <path fill="none" stroke="white" stroke-width="1.5" d="M0,-3.0v7 M-2.5,-0.5L0,-3.0L2.5,-0.5"/>
                </g>
                <g id="arrowDown" xlink:href="#dirArrow" transform="rotate(180) translate(-30 -48)" onmousedown="handlePan(0,1)">
                  <use xlink:href="#rim" fill="#404040">
                        <set attributeName="fill" to="#808080" begin="arrowDown.mouseover" end="arrowDown.mouseout"/>
                  </use>
                  <path fill="none" stroke="white" stroke-width="1.5" d="M0,-3.0v7 M-2.5,-0.5L0,-3.0L2.5,-0.5"/>
                </g>
                <g id="arrowLeft" xlink:href="#dirArrow" transform="rotate(270) translate(-36 17)" onmousedown="handlePan(-1,0)">
                  <use xlink:href="#rim" fill="#404040">
                        <set attributeName="fill" to="#808080" begin="arrowLeft.mouseover" end="arrowLeft.mouseout"/>
                  </use>
                  <path fill="none" stroke="white" stroke-width="1.5" d="M0,-3.0v7 M-2.5,-0.5L0,-3.0L2.5,-0.5"/>
                </g>
        </g>
        <svg viewBox="0 0 15 15" width="100%" height="30px" preserveAspectRatio="xMaxYMin meet">
         <g id="arrow_out" transform="scale(0.3 0.3)">
          <a xlink:href="SyncSysProxy_8hpp__incl_org.svg" target="_base">
           <rect id="button" ry="5" rx="5" y="6" x="6" height="38" width="38"
                fill="#f2f5e9" fill-opacity="0.5" stroke="#606060" stroke-width="1.0"/>
           <path id="arrow"
             d="M 11.500037,31.436501 C 11.940474,20.09759 22.043105,11.32322 32.158766,21.979434 L 37.068811,17.246167 C 37.068811,17.246167 37.088388,32 37.088388,32 L 22.160133,31.978069 C 22.160133,31.978069 26.997745,27.140456 26.997745,27.140456 C 18.528582,18.264221 13.291696,25.230495 11.500037,31.436501 z"
             style="fill:#404040;"/>
          </a>
         </g>
        </svg>
</svg>
